HIERARCHY
ROOT joint_Root
{
	OFFSET 0.0 0.0 0.0
	CHANNELS 6 Xposition Yposition Zposition Zrotation Xrotation Yrotation 
	JOINT Hips
	{
		OFFSET 4.5925 91.4895 -427.239
		CHANNELS 6 Xposition Yposition Zposition Zrotation Xrotation Yrotation 
		JOINT Spine
		{
			OFFSET 15.7357 0.0 0.0
			CHANNELS 6 Xposition Yposition Zposition Zrotation Xrotation Yrotation 
			JOINT Chest
			{
				OFFSET 8.98455 -0.406207 0.0
				CHANNELS 6 Xposition Yposition Zposition Zrotation Xrotation Yrotation 
				JOINT Neck
				{
					OFFSET 16.3773 0.0 0.0
					CHANNELS 6 Xposition Yposition Zposition Zrotation Xrotation Yrotation 
					JOINT Head
					{
						OFFSET 6.45672 0.0 0.0
						CHANNELS 6 Xposition Yposition Zposition Zrotation Xrotation Yrotation 
						End Site
						{
							OFFSET 0.0 0.0 0.0
						}
					}
				}
				JOINT Shoulder_L
				{
					OFFSET 12.9942 -0.242716 4.98039
					CHANNELS 6 Xposition Yposition Zposition Zrotation Xrotation Yrotation 
					JOINT UpperArm_L
					{
						OFFSET 5.34809 0.0 0.0
						CHANNELS 6 Xposition Yposition Zposition Zrotation Xrotation Yrotation 
						JOINT LowerArm_L
						{
							OFFSET 24.3286 1.87007e-05 0.0
							CHANNELS 6 Xposition Yposition Zposition Zrotation Xrotation Yrotation 
							JOINT Hand_L
							{
								OFFSET 22.2916 0.0 0.0
								CHANNELS 6 Xposition Yposition Zposition Zrotation Xrotation Yrotation 
								End Site
								{
									OFFSET 0.0 0.0 0.0
								}
							}
						}
					}
				}
				JOINT Shoulder_R
				{
					OFFSET 12.9945 -0.242716 -4.98039
					CHANNELS 6 Xposition Yposition Zposition Zrotation Xrotation Yrotation 
					JOINT UpperArm_R
					{
						OFFSET -5.34813 0.0 0.0
						CHANNELS 6 Xposition Yposition Zposition Zrotation Xrotation Yrotation 
						JOINT LowerArm_R
						{
							OFFSET -24.3289 0.000322201 0.0
							CHANNELS 6 Xposition Yposition Zposition Zrotation Xrotation Yrotation 
							JOINT Hand_R
							{
								OFFSET -22.2915 -0.000108084 0.0
								CHANNELS 6 Xposition Yposition Zposition Zrotation Xrotation Yrotation 
								End Site
								{
									OFFSET 0.0 0.0 0.0
								}
							}
						}
					}
				}
			}
		}
		JOINT UpperLeg_L
		{
			OFFSET -2.19248 -6.46944 0.0
			CHANNELS 6 Xposition Yposition Zposition Zrotation Xrotation Yrotation 
			JOINT LowerLeg_L
			{
				OFFSET 39.0811 0.0 -1.23785e-05
				CHANNELS 6 Xposition Yposition Zposition Zrotation Xrotation Yrotation 
				JOINT Foot_L
				{
					OFFSET 40.9854 0.0 -1.26872e-05
					CHANNELS 6 Xposition Yposition Zposition Zrotation Xrotation Yrotation 
					JOINT Toes_L
					{
						OFFSET 11.7543 0.0 0.0
						CHANNELS 6 Xposition Yposition Zposition Zrotation Xrotation Yrotation 
						End Site
						{
							OFFSET 0.0 0.0 0.0
						}
					}
				}
			}
		}
		JOINT UpperLeg_R
		{
			OFFSET -2.19251 6.46944 0.0
			CHANNELS 6 Xposition Yposition Zposition Zrotation Xrotation Yrotation 
			JOINT LowerLeg_R
			{
				OFFSET -39.0811 -0.00228153 -0.0401928
				CHANNELS 6 Xposition Yposition Zposition Zrotation Xrotation Yrotation 
				JOINT Foot_R
				{
					OFFSET -40.9854 0.0 0.0
					CHANNELS 6 Xposition Yposition Zposition Zrotation Xrotation Yrotation 
					JOINT Toes_R
					{
						OFFSET -11.7543 0.0 0.0
						CHANNELS 6 Xposition Yposition Zposition Zrotation Xrotation Yrotation 
						End Site
						{
							OFFSET 0.0 0.0 0.0
						}
					}
				}
			}
		}
	}
}
MOTION
Frames:	9
Frame Time:	0.0333333
0.000000 0.000000 0.000000 0.000000 0.000000 -0.000000 8.317840 79.610400 -406.277000 94.776600 -1.695590 -17.916400 15.735700 0.000005 -0.000001 86.784400 79.695400 -88.866400 8.984550 -0.406207 -0.000000 12.793600 -1.235900 -4.025430 16.377300 -0.000001 -0.000001 -1.512680 -4.883300 2.180760 6.456720 -0.000001 -0.000000 -11.883000 -4.551800 4.056210 12.994200 -0.242716 4.980390 -91.009000 3.774860 -75.031900 5.348090 -0.000007 -0.000001 -64.956000 10.990900 -27.881700 24.328600 0.000019 0.000005 4.293950 3.309280 -52.467000 22.291600 -0.000001 0.000005 20.192900 5.560310 -9.201340 12.994500 -0.242716 -4.980390 88.523200 7.467230 -78.779600 -5.348130 -0.000001 -0.000004 -63.021000 34.646200 -7.001870 -24.328900 0.000322 -0.000009 -2.656840 -5.343510 -26.339000 -22.291500 -0.000108 -0.000004 11.362300 5.336740 -0.967671 -2.192480 -6.469440 -0.000000 169.404000 -5.186320 -37.400600 39.081100 -0.000007 -0.000012 -0.408099 0.208862 62.898000 40.985400 -0.000006 -0.000013 1.362790 -5.543090 -94.357800 11.754300 -0.000000 0.000003 -0.000029 -0.000350 -16.591200 -2.192510 6.469440 -0.000001 176.779000 7.482100 136.628000 -39.081100 -0.002282 -0.040193 -0.333093 -0.208963 121.834000 -40.985400 0.000008 0.000006 5.481580 2.912740 -34.315800 -11.754300 -0.000006 -0.000006 -0.024737 -0.192242 -24.437500
0.000000 0.000000 0.000000 0.000000 0.000000 -0.000000 7.530010 79.435400 -398.357000 93.688800 2.374610 -19.614200 15.735700 0.000005 -0.000001 79.577300 80.219900 -80.405500 8.984550 -0.406207 -0.000000 11.462000 -3.536800 -1.301080 16.377300 -0.000001 -0.000001 -2.270150 -4.475140 1.630960 6.456720 -0.000001 -0.000000 -11.986900 -3.329850 4.555970 12.994200 -0.242716 4.980390 -90.033300 0.133229 -76.229300 5.348090 -0.000007 -0.000001 -66.650300 9.633010 -38.913700 24.328600 0.000019 0.000005 5.456270 2.290820 -67.263000 22.291600 -0.000001 0.000005 18.838600 5.557400 -9.055400 12.994500 -0.242716 -4.980390 88.366200 6.805470 -76.462800 -5.348130 -0.000001 -0.000004 -66.846400 33.084900 7.859710 -24.328900 0.000322 -0.000009 1.422800 2.882180 -26.363700 -22.291500 -0.000108 -0.000004 9.108210 5.349650 -1.371510 -2.192480 -6.469440 -0.000000 173.024000 -5.329250 -30.111200 39.081100 -0.000007 -0.000012 -0.397497 0.247458 58.097100 40.985400 -0.000006 -0.000013 1.516450 -1.716880 -97.981300 11.754300 -0.000000 0.000003 -0.000018 -0.000224 -16.586300 -2.192510 6.469440 -0.000001 -177.125000 8.589190 119.955000 -39.081100 -0.002282 -0.040193 -0.673234 -0.554045 129.308000 -40.985400 0.000008 0.000006 12.849300 -6.964330 -38.495700 -11.754300 -0.000006 -0.000006 -0.025147 -0.194294 -24.522400
0.000000 0.000000 0.000000 0.000000 0.000000 -0.000000 6.271310 80.542500 -388.501000 90.958300 6.812310 -19.787000 15.735700 0.000005 -0.000001 70.747000 80.263600 -69.714500 8.984550 -0.406207 -0.000000 10.724500 -6.349020 2.661880 16.377300 -0.000001 -0.000001 -2.004460 -4.104410 1.172980 6.456720 -0.000001 -0.000000 -11.676200 -1.474720 4.355630 12.994200 -0.242716 4.980390 -89.349500 -2.737060 -76.627000 5.348090 -0.000007 -0.000001 -65.689200 7.214150 -46.846400 24.328600 0.000019 0.000005 6.904220 1.159610 -80.503000 22.291600 -0.000001 0.000005 18.106400 5.535570 -8.042260 12.994500 -0.242716 -4.980390 88.377700 5.499030 -73.526800 -5.348130 -0.000001 -0.000004 -68.625900 37.524300 20.194400 -24.328900 0.000322 -0.000009 -3.177120 -5.260660 -31.145700 -22.291500 -0.000108 -0.000004 6.741350 5.360520 -1.697740 -2.192480 -6.469440 -0.000000 179.565000 -5.626500 -17.294700 39.081100 -0.000007 -0.000012 -0.009271 0.009109 45.516600 40.985400 -0.000006 -0.000013 2.514600 2.073150 -96.817000 11.754300 -0.000000 0.000003 -0.134329 -0.188138 -18.061100 -2.192510 6.469440 -0.000001 -171.094000 7.370860 111.998000 -39.081100 -0.002282 -0.040193 -0.610105 -0.446718 126.056000 -40.985400 0.000008 0.000006 15.628200 -14.401300 -48.174700 -11.754300 -0.000006 -0.000006 -0.021992 -0.178082 -23.852800
0.000000 0.000000 0.000000 0.000000 0.000000 -0.000000 5.097380 82.847900 -377.876000 87.060400 9.627100 -21.219500 15.735700 0.000005 -0.000001 62.367500 80.908400 -59.155700 8.984550 -0.406207 -0.000000 8.656430 -8.368350 7.061480 16.377300 -0.000001 -0.000001 -1.203650 -3.710150 0.649093 6.456720 -0.000001 -0.000000 -10.293500 0.185686 3.022160 12.994200 -0.242716 4.980390 -88.721700 -5.160900 -76.069400 5.348090 -0.000007 -0.000001 -65.155900 5.255790 -49.816400 24.328600 0.000019 0.000005 6.344520 0.018356 -89.853100 22.291600 -0.000001 0.000005 17.069700 5.520360 -7.375750 12.994500 -0.242716 -4.980390 89.385200 1.925240 -72.285400 -5.348130 -0.000001 -0.000004 -72.215600 37.811400 29.966400 -24.328900 0.000322 -0.000009 -3.676540 -5.367380 -34.481700 -22.291500 -0.000108 -0.000004 5.670780 5.378240 -2.243510 -2.192480 -6.469440 -0.000000 -173.333000 -4.996010 -8.019770 39.081100 -0.000007 -0.000012 -0.035879 0.054168 33.519600 40.985400 -0.000006 -0.000013 0.286318 4.508010 -82.102500 11.754300 -0.000000 0.000003 -0.063600 -0.343314 -30.768500 -2.192510 6.469440 -0.000001 -168.267000 3.184260 107.096000 -39.081100 -0.002282 -0.040193 -0.204569 -0.097954 115.207000 -40.985400 0.000008 0.000006 11.968500 -14.088900 -58.735200 -11.754300 -0.000006 -0.000006 -0.019471 -0.164340 -23.286400
0.000000 0.000000 0.000000 0.000000 0.000000 -0.000000 4.377890 85.849700 -367.522000 84.932300 11.075800 -23.886200 15.735700 0.000005 -0.000001 54.516600 81.716100 -49.636600 8.984550 -0.406207 -0.000000 6.225570 -9.656730 10.294600 16.377300 -0.000001 -0.000001 -0.800993 -2.994800 0.235841 6.456720 -0.000001 -0.000000 -9.260570 0.862242 1.296800 12.994200 -0.242716 4.980390 -88.377800 -6.202560 -75.312200 5.348090 -0.000007 -0.000001 -64.706700 4.995220 -50.718500 24.328600 0.000019 0.000005 3.922210 -0.252071 -93.676200 22.291600 -0.000001 0.000005 14.914200 5.511540 -7.002440 12.994500 -0.242716 -4.980390 90.473100 -1.573910 -73.253100 -5.348130 -0.000001 -0.000004 -76.025300 34.280200 36.919100 -24.328900 0.000322 -0.000009 -5.248220 -7.211870 -36.178800 -22.291500 -0.000108 -0.000004 7.119330 5.398470 -2.884700 -2.192480 -6.469440 -0.000000 -168.517000 -11.362400 -4.591500 39.081100 -0.000007 -0.000012 -0.009485 0.019397 26.059300 40.985400 -0.000006 -0.000013 -1.525550 10.010100 -57.004400 11.754300 -0.000000 0.000003 -0.273437 -0.755092 -49.590700 -2.192510 6.469440 -0.000001 -168.627000 0.058193 104.129000 -39.081100 -0.002282 -0.040193 0.095952 0.013931 98.606200 -40.985400 0.000008 0.000006 11.250400 -13.210200 -65.544900 -11.754300 -0.000006 -0.000006 -0.017919 -0.155474 -22.921500
0.000000 0.000000 0.000000 0.000000 0.000000 -0.000000 4.273420 88.256200 -357.064000 85.993200 9.771000 -23.844500 15.735700 0.000005 -0.000001 52.903300 81.688000 -47.804800 8.984550 -0.406207 -0.000000 6.037780 -10.078400 10.740000 16.377300 -0.000001 -0.000001 0.117253 -2.269590 0.011058 6.456720 -0.000001 -0.000000 -10.379100 1.515470 0.404413 12.994200 -0.242716 4.980390 -88.483400 -5.412500 -74.320500 5.348090 -0.000007 -0.000001 -63.524800 6.854470 -50.443300 24.328600 0.000019 0.000005 1.420790 -0.066024 -92.626800 22.291600 -0.000001 0.000005 14.258000 5.497330 -6.426110 12.994500 -0.242716 -4.980390 90.955800 -3.380050 -74.198700 -5.348130 -0.000001 -0.000004 -77.815300 30.856200 39.762300 -24.328900 0.000322 -0.000009 -8.844930 -11.350800 -38.323000 -22.291500 -0.000108 -0.000004 9.678300 5.404450 -3.079600 -2.192480 -6.469440 -0.000000 -166.396000 -19.867900 0.608889 39.081100 -0.000007 -0.000012 0.060081 -0.158769 20.727400 40.985400 -0.000006 -0.000013 -7.347590 14.079300 -33.664500 11.754300 -0.000000 0.000003 -0.040441 -0.261878 -27.335600 -2.192510 6.469440 -0.000001 -171.682000 0.056724 107.346000 -39.081100 -0.002282 -0.040193 0.181446 -0.036542 78.431400 -40.985400 0.000008 0.000006 9.896030 -10.567100 -70.419900 -11.754300 -0.000006 -0.000006 -0.020063 -0.167638 -23.422200
0.000000 0.000000 0.000000 0.000000 0.000000 -0.000000 4.405540 88.901800 -346.320000 87.509300 9.440710 -22.243400 15.735700 0.000005 -0.000001 51.590800 81.026200 -46.598800 8.984550 -0.406207 -0.000000 6.906860 -11.152900 10.674300 16.377300 -0.000001 -0.000001 0.807619 -1.904390 0.390403 6.456720 -0.000001 -0.000000 -11.097300 2.601750 0.213426 12.994200 -0.242716 4.980390 -88.624600 -4.840390 -74.116600 5.348090 -0.000007 -0.000001 -62.614400 9.686950 -46.749100 24.328600 0.000019 0.000005 0.494252 0.003173 -89.629900 22.291600 -0.000001 0.000005 15.289200 5.477370 -5.648790 12.994500 -0.242716 -4.980390 90.818300 -2.912460 -74.299100 -5.348130 -0.000001 -0.000004 -76.985200 28.932200 38.598500 -24.328900 0.000322 -0.000009 -12.221100 -14.454000 -40.942600 -22.291500 -0.000108 -0.000004 11.139700 5.416900 -3.486710 -2.192480 -6.469440 -0.000000 -165.387000 -18.090100 4.204740 39.081100 -0.000007 -0.000012 0.072698 -0.147469 26.241900 40.985400 -0.000006 -0.000013 -5.883280 6.154820 -33.974500 11.754300 -0.000000 0.000003 -0.006154 -0.072235 -19.516800 -2.192510 6.469440 -0.000001 -171.805000 4.936550 114.237000 -39.081100 -0.002282 -0.040193 0.082633 -0.051704 56.933500 -40.985400 0.000008 0.000006 4.929370 -2.845140 -74.322600 -11.754300 -0.000006 -0.000006 -0.020770 -0.171517 -23.582100
0.000000 0.000000 0.000000 0.000000 0.000000 -0.000000 4.531120 88.476300 -335.181000 90.327000 9.762360 -19.435900 15.735700 0.000005 -0.000001 50.919200 79.915800 -46.623300 8.984550 -0.406207 -0.000000 8.538000 -12.628800 9.558200 16.377300 -0.000001 -0.000001 0.656110 -2.147980 0.399530 6.456720 -0.000001 -0.000000 -11.056100 3.092280 0.548300 12.994200 -0.242716 4.980390 -88.878400 -4.139040 -74.825900 5.348090 -0.000007 -0.000001 -62.514300 13.510000 -39.822300 24.328600 0.000019 0.000005 -0.468510 -0.050179 -84.022100 22.291600 -0.000001 0.000005 16.444900 5.479570 -5.732390 12.994500 -0.242716 -4.980390 89.827200 0.630851 -74.662800 -5.348130 -0.000001 -0.000004 -73.480900 26.421000 34.488600 -24.328900 0.000322 -0.000009 -17.370500 -18.759900 -44.200700 -22.291500 -0.000108 -0.000004 14.906900 5.454130 -4.754160 -2.192480 -6.469440 -0.000000 -168.181000 -9.233350 7.162060 39.081100 -0.000007 -0.000012 0.081650 -0.111491 36.216800 40.985400 -0.000006 -0.000013 -3.027360 -4.803660 -36.924800 11.754300 -0.000000 0.000003 -0.004958 -0.061067 -19.061400 -2.192510 6.469440 -0.000001 -170.318000 13.617000 122.672000 -39.081100 -0.002282 -0.040193 -0.044375 0.059347 38.765500 -40.985400 0.000008 0.000006 0.060209 6.599130 -75.475100 -11.754300 -0.000006 -0.000006 -0.022623 -0.181404 -23.989900
0.000000 0.000000 0.000000 0.000000 0.000000 -0.000000 4.701050 87.265700 -323.836000 92.207600 7.558160 -17.385600 15.735700 0.000005 -0.000001 55.446700 79.908000 -51.928300 8.984550 -0.406207 -0.000000 9.354720 -11.338000 7.980090 16.377300 -0.000001 -0.000001 0.884998 -2.776890 -0.244882 6.456720 -0.000001 -0.000000 -11.686500 2.149540 0.646859 12.994200 -0.242716 4.980390 -89.382500 -2.328000 -75.136400 5.348090 -0.000007 -0.000001 -62.063100 19.288000 -32.967000 24.328600 0.000019 0.000005 -0.225899 -0.064255 -72.729600 22.291600 -0.000001 0.000005 16.101000 5.468510 -5.305610 12.994500 -0.242716 -4.980390 88.581400 5.489170 -75.475700 -5.348130 -0.000001 -0.000004 -68.533900 21.707300 27.818900 -24.328900 0.000322 -0.000009 -21.854100 -21.601400 -47.447400 -22.291500 -0.000108 -0.000004 19.121200 5.480930 -5.771670 -2.192480 -6.469440 -0.000000 -174.232000 -3.306270 7.300260 39.081100 -0.000007 -0.000012 0.145916 -0.118690 50.873900 40.985400 -0.000006 -0.000013 3.919720 -9.140930 -35.137700 11.754300 -0.000000 0.000003 -0.005032 -0.061782 -19.090600 -2.192510 6.469440 -0.000001 -168.717000 17.833100 125.202000 -39.081100 -0.002282 -0.040193 0.231165 -0.282638 38.878500 -40.985400 0.000008 0.000006 5.574270 4.061470 -71.967300 -11.754300 -0.000006 -0.000006 -0.032902 -0.230469 -26.022200
